<svg xmlns:xlink="http://www.w3.org/1999/xlink" xmlns:vectornator="http://vectornator.io" xmlns="http://www.w3.org/2000/svg" style="fill-rule:nonzero;clip-rule:evenodd;stroke-linecap:round;stroke-linejoin:round;" version="1.1" height="293" xml:space="preserve" width="260"><rect id="backgroundrect" width="100%" height="100%" x="0" y="0" fill="none" stroke="none"/>
<defs>
<path d="M240.037+20.3447C212.593-7.09922+168.245-7.27201+140.546+19.7592L140.486+19.6987L27.4288+132.756C-9.14296+169.327-9.14293+228.622+27.4288+265.194C64.0007+301.766+123.295+301.766+159.867+265.194L192.169+232.892C196.629+228.432+196.629+221.201+192.169+216.741C187.709+212.281+180.478+212.281+176.018+216.741L143.716+249.043C116.064+276.695+71.2318+276.695+43.5798+249.043C15.928+221.391+15.9279+176.559+43.5798+148.907L156.637+35.8497L156.697+35.9102C175.474+17.7966+205.361+17.9714+223.886+36.4957C242.41+55.02+242.585+84.9073+224.471+103.684L111.414+216.741C101.602+226.553+85.6937+226.553+75.8818+216.741C66.0699+206.929+66.0699+191.021+75.8818+181.209L108.184+148.907C112.644+144.447+112.644+137.216+108.184+132.756C103.724+128.296+96.4928+128.296+92.0328+132.756L59.7308+165.058C40.999+183.79+40.999+214.16+59.7308+232.892C78.4628+251.624+108.833+251.624+127.565+232.892L240.622+119.835C267.653+92.1364+267.481+47.7886+240.037+20.3447Z" id="Mask"/>
</defs>

<g class="currentLayer" style=""><title>Layer 1</title>
<g opacity="1" vectornator:mask="#Mask" id="svg_1" class="">
<use stroke="none" fill="#ffffff" xlink:href="#Mask" id="svg_2"/>
<clipPath id="ClipPath">
<use xlink:href="#Mask" overflow="visible" fill="none" id="svg_3"/>
</clipPath>
<g clip-path="url(#ClipPath)" id="svg_4">
<path opacity="1" fill="#1c71e8" d="M-79.3337-367.008L322.727-367.008L322.727-367.008L322.727-275.799L322.727+106.084L322.727+106.084C322.727+106.084+241.957+199.374+143.816+256.123C94.9131+284.401+69.3196+189.72+23.6311+141.755C-15.9474+100.205-79.3337+106.084-79.3337+106.084L-79.3337+106.084L-79.3337-367.008L-79.3337-367.008Z" fill-opacity="0.399261" id="svg_5"/>
<path opacity="1" fill="#1c71e8" fill-opacity="0.399261" d="M-51.5921-52.8562L431.046-52.8562L431.046-52.8562L431.046+296.173L431.046+296.173C431.046+296.173+362.781+267.396+270.305+255.196C177.83+242.995+130.31+476.704+40.0538+371.611C-50.2022+266.517-51.5921+296.173-51.5921+296.173L-51.5921+296.173L-51.5921-52.8562L-51.5921-52.8562Z" id="svg_6"/>
<path fill="#1c71e8" opacity="1" fill-opacity="0.326028" d="M-186.747+185.044C-186.747+185.044-119.612+312.297-9.00775+248.671C53.2874+212.835+91.004+13.743+162.89+60.1503C228.812+102.708+366.497+185.044+366.497+185.044L366.497+185.044L366.497+613.394L366.497+613.394L-186.747+613.394L-186.747+613.394L-186.747+185.044L-186.747+185.044Z" id="svg_7"/>
<path d="M-267.109+175.923C-267.109+175.923-242.91+596.764-85.1982+261.872C72.5137-73.021+215.205+175.923+215.205+175.923L215.205+175.923L215.205+736.139L215.205+736.139L-267.109+736.139L-267.109+736.139L-267.109+175.923L-267.109+175.923Z" fill="#1c71e8" fill-opacity="0.326028" opacity="1" id="svg_8"/>
<path d="M-25.9519-436.536L476.292-436.536L476.292-436.536L476.292+30.6475L476.292+30.6475C476.292+30.6475+455.153-8.73501+294.249-57.6493C210.826-83.0098+175.541+63.7231+76.3921+183.679C-3.60171+280.46-25.9519+30.6475-25.9519+30.6475L-25.9519+30.6475L-25.9519-436.536L-25.9519-436.536Z" fill="#1c71e8" fill-opacity="0.399261" opacity="1" id="svg_9"/>
<path opacity="1" d="M44.3505+226.057C44.3505+226.057+77.3881+146.123+185.373+146.123C236.817+146.123+295.858+244.198+353.439+263.195C416.726+284.076+476.292+226.057+476.292+226.057L476.292+226.057L476.292+676.957L476.292+676.957L44.3505+676.957L44.3505+676.957L44.3505+226.057L44.3505+226.057Z" fill="#1c71e8" fill-opacity="0.326028" id="svg_10"/>
</g>
</g>

</g></svg>