<svg xmlns="http://www.w3.org/2000/svg" xmlns:html="http://www.w3.org/1999/xhtml" xmlns:xlink="http://www.w3.org/1999/xlink" version="1.1"><style xmlns="http://www.w3.org/1999/xhtml">
    .blocklyText {
        fill: #fff;
        font-family: "Helvetica Neue", Helvetica, sans-serif;
        font-size: 12pt;
        font-weight: 500;
    }
    .blocklyNonEditableText&gt;text, .blocklyEditableText&gt;text {
        fill: #575E75;
    }
    .blocklyDropdownText {
        fill: #fff !important;
    }
    </style><g class="blocklyBlockCanvas" transform="translate(-146,-141) "><g data-id="$Q?BUIUsnZ6exe0ZkN%q" class="blocklyDraggable" data-shapes="hat" transform="translate(146,159)"><path class="blocklyPath blocklyBlockBackground" stroke="#FF3355" fill="#FF6680" fill-opacity="1" d="m 0, 0 a 20,20 0 0,1 20,-20 H 194.22222518920898 a 20,20 0 0,1 20,20 v 68  a 4,4 0 0,1 -4,4 H 48   c -2,0 -3,1 -4,2 l -4,4 c -1,1 -2,2 -4,2 h -12 c -2,0 -3,-1 -4,-2 l -4,-4 c -1,-1 -2,-2 -4,-2 H 4 a 4,4 0 0,1 -4,-4 z"/><g data-id="Cy+K,uH88dK~)k.]aiY#" data-shapes="argument round" transform="translate(60.40329360961914,4)"><path class="blocklyPath blocklyBlockBackground" stroke="#FF3355" fill="#FF4D6A" fill-opacity="1" d="m 0,0 m 24,0 H 121.81893157958984 a 24 24 0 0 1 0 48 H 24 a 24 24 0 0 1 0 -48 z"/><text class="blocklyText" y="2" text-anchor="middle" dominant-baseline="middle" dy="0" x="32.90946578979492" transform="translate(12, 24) ">fibonacci</text><path class="blocklyPath" style="visibility: hidden" d="" fill="#FF3355"/><g data-id="uo]91IzB;]GH?*fw7LaD" data-shapes="argument round" transform="translate(85.81893157958984,4)"><path class="blocklyPath blocklyBlockBackground" stroke="#FF3355" fill="#FF6680" fill-opacity="1" d="m 0,0 m 20,0 H 28 a 20 20 0 0 1 0 40 H 20 a 20 20 0 0 1 0 -40 z"/><text class="blocklyText" y="2" text-anchor="middle" dominant-baseline="middle" dy="0" x="12" transform="translate(12, 20) ">n</text></g></g><g data-id="e|tET!i?Ouaoc9IZQbW:" class="blocklyDraggable" data-shapes="c-block c-1" data-category="control" transform="translate(0,72)"><path class="blocklyPath blocklyBlockBackground" stroke="#CF8B17" fill="#FFAB19" fill-opacity="1" d="m 0,4 A 4,4 0 0,1 4,0 H 12 c 2,0 3,1 4,2 l 4,4 c 1,1 2,2 4,2 h 12 c 2,0 3,-1 4,-2 l 4,-4 c 1,-1 2,-2 4,-2 H 247.8333339691162 a 4,4 0 0,1 4,4 v 48  a 4,4 0 0,1 -4,4 H 64 c -2,0 -3,1 -4,2 l -4,4 c -1,1 -2,2 -4,2 h -12 c -2,0 -3,-1 -4,-2 l -4,-4 c -1,-1 -2,-2 -4,-2 h -8  a 4,4 0 0,0 -4,4 v 40 a 4,4 0 0,0 4,4 H 247.8333339691162 a 4,4 0 0,1 4,4 v 24  a 4,4 0 0,1 -4,4 H 48   c -2,0 -3,1 -4,2 l -4,4 c -1,1 -2,2 -4,2 h -12 c -2,0 -3,-1 -4,-2 l -4,-4 c -1,-1 -2,-2 -4,-2 H 4 a 4,4 0 0,1 -4,-4 z"/><g data-id="cI_1y{5]+:#c{)G7DDq@" class="blocklyDraggable" data-shapes="reporter boolean" data-category="operators" transform="translate(48,4)"><path class="blocklyPath blocklyBlockBackground" stroke="#389438" fill="#59C059" fill-opacity="1" d="m 0,0 m 24,0 H 132.13333320617676 l 24 24 l -24 24 H 24 l -24 -24 l 24 -24 z"/><g data-id="B:p.IymoPNfX21*_m2lA" class="blocklyDraggable" data-shapes="reporter round" transform="translate(24,4)"><path class="blocklyPath blocklyBlockBackground" stroke="#FF3355" fill="#FF6680" fill-opacity="1" d="m 0,0 m 20,0 H 28 a 20 20 0 0 1 0 40 H 20 a 20 20 0 0 1 0 -40 z"/><text class="blocklyText" y="2" text-anchor="middle" dominant-baseline="middle" dy="0" x="12" transform="translate(12, 20) ">n</text></g><g data-id="0(1CAwK7[a-T(W4uZ0_E" data-argument-type="text" data-shapes="argument round" transform="translate(96.13333320617676,8)"><path class="blocklyPath blocklyBlockBackground" stroke="#389438" fill="#FFFFFF" fill-opacity="1" d="m 0,0 m 16,0 H 24 a 16 16 0 0 1 0 32 H 16 a 16 16 0 0 1 0 -32 z"/><g class="blocklyEditableText" transform="translate(8, 0) " style="cursor: text;"><text class="blocklyText" x="12" y="18" dominant-baseline="middle" dy="0" text-anchor="middle">3</text></g></g><path class="blocklyPath" style="visibility: hidden" d="" fill="#389438"/><text class="blocklyText" y="2" text-anchor="middle" dominant-baseline="middle" dy="0" x="4.066666603088379" transform="translate(80, 24) ">&lt;</text><path class="blocklyPath" style="visibility: hidden" d="" fill="#389438"/></g><g data-id="YOR+9Lz!6PFC__r2e]yx" class="blocklyDraggable" data-shapes="stack end" transform="translate(16,56)"><path class="blocklyPath blocklyBlockBackground" stroke="#FF3355" fill="#FF6680" fill-opacity="1" d="m 0,4 A 4,4 0 0,1 4,0 H 12 c 2,0 3,1 4,2 l 4,4 c 1,1 2,2 4,2 h 12 c 2,0 3,-1 4,-2 l 4,-4 c 1,-1 2,-2 4,-2 H 102.80555725097656 a 4,4 0 0,1 4,4 v 40  a 4,4 0 0,1 -4,4 H 4 a 4,4 0 0,1 -4,-4 z"/><g data-id="rtG4=(8m}bJR|i`q]M0R" data-argument-type="text" data-shapes="argument round" transform="translate(58.80555725097656,8)"><path class="blocklyPath blocklyBlockBackground" stroke="#FF3355" fill="#FFFFFF" fill-opacity="1" d="m 0,0 m 16,0 H 24 a 16 16 0 0 1 0 32 H 16 a 16 16 0 0 1 0 -32 z"/><g class="blocklyEditableText" transform="translate(8, 0) " style="cursor: text;"><text class="blocklyText" x="12" y="18" dominant-baseline="middle" dy="0" text-anchor="middle">1</text></g></g><text class="blocklyText" y="2" text-anchor="middle" dominant-baseline="middle" dy="0" x="21.40277862548828" transform="translate(8, 24) ">return</text><path class="blocklyPath" style="visibility: hidden" d="" fill="#FF3355"/></g><g data-id="|xQ?%QDXQs514]db-`qy" class="blocklyDraggable" data-shapes="stack end" transform="translate(0,136)"><path class="blocklyPath blocklyBlockBackground" stroke="#FF3355" fill="#FF6680" fill-opacity="1" d="m 0,4 A 4,4 0 0,1 4,0 H 12 c 2,0 3,1 4,2 l 4,4 c 1,1 2,2 4,2 h 12 c 2,0 3,-1 4,-2 l 4,-4 c 1,-1 2,-2 4,-2 H 525.8878650665283 a 4,4 0 0,1 4,4 v 64  a 4,4 0 0,1 -4,4 H 4 a 4,4 0 0,1 -4,-4 z"/><g data-id="rr__g(eJdqlZmx.pxU_}" class="blocklyDraggable" data-shapes="reporter round" data-category="operators" transform="translate(58.80555725097656,4)"><path class="blocklyPath blocklyBlockBackground" stroke="#389438" fill="#59C059" fill-opacity="1" d="m 0,0 m 32,0 H 431.08230781555176 a 32 32 0 0 1 0 64 H 32 a 32 32 0 0 1 0 -64 z"/><g data-id="V)Oenx;xBpIDUo8TsIxG" class="blocklyDraggable" data-shapes="reporter round" transform="translate(4,4)"><path class="blocklyPath blocklyBlockBackground" stroke="#FF3355" fill="#FF6680" fill-opacity="1" d="m 0,0 m 28,0 H 187.0800428390503 a 28 28 0 0 1 0 56 H 28 a 28 28 0 0 1 0 -56 z"/><text class="blocklyText" y="2" text-anchor="middle" dominant-baseline="middle" dy="0" x="32.90946578979492" transform="translate(12, 28) ">fibonacci</text><path class="blocklyPath" style="visibility: hidden" d="" fill="#FF3355"/><g data-id="$2-o:zl{!mWI:*JB|5o_" class="blocklyDraggable" data-shapes="reporter round" data-category="operators" transform="translate(85.81893157958984,4)"><path class="blocklyPath blocklyBlockBackground" stroke="#389438" fill="#59C059" fill-opacity="1" d="m 0,0 m 24,0 H 93.26111125946045 a 24 24 0 0 1 0 48 H 24 a 24 24 0 0 1 0 -48 z"/><g data-id="fMP5+oLWXxtqFSpExDE^" class="blocklyDraggable" data-shapes="reporter round" transform="translate(4,4)"><path class="blocklyPath blocklyBlockBackground" stroke="#FF3355" fill="#FF6680" fill-opacity="1" d="m 0,0 m 20,0 H 28 a 20 20 0 0 1 0 40 H 20 a 20 20 0 0 1 0 -40 z"/><text class="blocklyText" y="2" text-anchor="middle" dominant-baseline="middle" dy="0" x="12" transform="translate(12, 20) ">n</text></g><g data-id="3s3!1.}jkWq(VhY*a72?" data-argument-type="text number" data-shapes="argument round" transform="translate(73.26111125946045,8)"><path class="blocklyPath blocklyBlockBackground" stroke="#389438" fill="#FFFFFF" fill-opacity="1" d="m 0,0 m 16,0 H 24 a 16 16 0 0 1 0 32 H 16 a 16 16 0 0 1 0 -32 z"/><g class="blocklyEditableText" transform="translate(8, 0) " style="cursor: text;"><text class="blocklyText" x="12" y="18" dominant-baseline="middle" dy="0" text-anchor="middle">2</text></g></g><path class="blocklyPath" style="visibility: hidden" d="" fill="#389438"/><text class="blocklyText" y="2" text-anchor="middle" dominant-baseline="middle" dy="0" x="2.6305556297302246" transform="translate(60, 24) ">-</text><path class="blocklyPath" style="visibility: hidden" d="" fill="#389438"/></g></g><g data-id="J?{G);CXkSUttGOuHD[n" class="blocklyDraggable" data-shapes="reporter round" transform="translate(244.00226497650146,4)"><path class="blocklyPath blocklyBlockBackground" stroke="#FF3355" fill="#FF6680" fill-opacity="1" d="m 0,0 m 28,0 H 187.0800428390503 a 28 28 0 0 1 0 56 H 28 a 28 28 0 0 1 0 -56 z"/><text class="blocklyText" y="2" text-anchor="middle" dominant-baseline="middle" dy="0" x="32.90946578979492" transform="translate(12, 28) ">fibonacci</text><path class="blocklyPath" style="visibility: hidden" d="" fill="#FF3355"/><g data-id="]jNVv-j{#A4Lh_YJ81AB" class="blocklyDraggable" data-shapes="reporter round" data-category="operators" transform="translate(85.81893157958984,4)"><path class="blocklyPath blocklyBlockBackground" stroke="#389438" fill="#59C059" fill-opacity="1" d="m 0,0 m 24,0 H 93.26111125946045 a 24 24 0 0 1 0 48 H 24 a 24 24 0 0 1 0 -48 z"/><g data-id="veK4v+o(`99``Q^kH5?;" class="blocklyDraggable" data-shapes="reporter round" transform="translate(4,4)"><path class="blocklyPath blocklyBlockBackground" stroke="#FF3355" fill="#FF6680" fill-opacity="1" d="m 0,0 m 20,0 H 28 a 20 20 0 0 1 0 40 H 20 a 20 20 0 0 1 0 -40 z"/><text class="blocklyText" y="2" text-anchor="middle" dominant-baseline="middle" dy="0" x="12" transform="translate(12, 20) ">n</text></g><g data-id="9smTdyNH.4=P*W~N:ZCe" data-argument-type="text number" data-shapes="argument round" transform="translate(73.26111125946045,8)"><path class="blocklyPath blocklyBlockBackground" stroke="#389438" fill="#FFFFFF" fill-opacity="1" d="m 0,0 m 16,0 H 24 a 16 16 0 0 1 0 32 H 16 a 16 16 0 0 1 0 -32 z"/><g class="blocklyEditableText" transform="translate(8, 0) " style="cursor: text;"><text class="blocklyText" x="12" y="18" dominant-baseline="middle" dy="0" text-anchor="middle">1</text></g></g><path class="blocklyPath" style="visibility: hidden" d="" fill="#389438"/><text class="blocklyText" y="2" text-anchor="middle" dominant-baseline="middle" dy="0" x="2.6305556297302246" transform="translate(60, 24) ">-</text><path class="blocklyPath" style="visibility: hidden" d="" fill="#389438"/></g></g><path class="blocklyPath" style="visibility: hidden" d="" fill="#389438"/><text class="blocklyText" y="2" text-anchor="middle" dominant-baseline="middle" dy="0" x="4.461111068725586" transform="translate(227.0800428390503, 32) ">+</text><path class="blocklyPath" style="visibility: hidden" d="" fill="#389438"/></g><text class="blocklyText" y="2" text-anchor="middle" dominant-baseline="middle" dy="0" x="21.40277862548828" transform="translate(8, 36) ">return</text><path class="blocklyPath" style="visibility: hidden" d="" fill="#FF3355"/></g><text class="blocklyText" y="2" text-anchor="middle" dominant-baseline="middle" dy="0" x="4.883333206176758" transform="translate(8, 28) ">if</text><path class="blocklyPath" style="visibility: hidden" d="" fill="#CF8B17"/><text class="blocklyText" y="2" text-anchor="middle" dominant-baseline="middle" dy="0" x="15.850000381469727" transform="translate(212.13333320617676, 28) ">then</text></g><text class="blocklyText" y="2" text-anchor="middle" dominant-baseline="middle" dy="0" x="22.20164680480957" transform="translate(8, 28) ">define</text><path class="blocklyPath" style="visibility: hidden" d="" fill="#FF3355"/></g></g></svg>